<?xml version="1.0" standalone="no"?><!DOCTYPE svg PUBLIC "-//W3C//DTD SVG 1.1//EN" "http://www.w3.org/Graphics/SVG/1.1/DTD/svg11.dtd"><svg t="1545723913347" class="icon" style="" viewBox="0 0 1280 1024" version="1.1" xmlns="http://www.w3.org/2000/svg" p-id="7926" xmlns:xlink="http://www.w3.org/1999/xlink" width="160" height="128"><defs><style type="text/css"></style></defs><path d="M0 448v544c0 17.68 14.32 32 32 32h160V384H64c-35.34 0-64 28.66-64 64z m720-96h-48v-80c0-8.84-7.16-16-16-16h-32c-8.84 0-16 7.16-16 16v128c0 8.84 7.16 16 16 16h96c8.84 0 16-7.16 16-16v-32c0-8.84-7.16-16-16-16z m275.5-127.92l-320-213.34a64.04 64.04 0 0 0-71 0l-320 213.34A64.004 64.004 0 0 0 256 277.32V1024h256V736c0-17.68 14.32-32 32-32h192c17.68 0 32 14.32 32 32v288h256V277.34c0-21.4-10.7-41.4-28.5-53.26zM640 512c-88.36 0-160-71.64-160-160s71.64-160 160-160 160 71.64 160 160-71.64 160-160 160z m576-128h-128v640h160c17.68 0 32-14.32 32-32V448c0-35.34-28.66-64-64-64z" fill="" p-id="7927"></path></svg>