<?xml version="1.0" standalone="no"?><!DOCTYPE svg PUBLIC "-//W3C//DTD SVG 1.1//EN" "http://www.w3.org/Graphics/SVG/1.1/DTD/svg11.dtd"><svg t="1555087773148" class="icon" style="" viewBox="0 0 1024 1024" version="1.1" xmlns="http://www.w3.org/2000/svg" p-id="2034" xmlns:xlink="http://www.w3.org/1999/xlink" width="200" height="200"><defs><style type="text/css"></style></defs><path d="M512.1 512.1m-342.8 0a342.8 342.8 0 1 0 685.6 0 342.8 342.8 0 1 0-685.6 0Z" fill="#75AFCC" p-id="2035"></path><path d="M960.1 512.1c0 247.4-200.6 448-448 448s-448-200.6-448-448 200.6-448 448-448 448 200.6 448 448z" fill="#99CC00" p-id="2036"></path><path d="M511.1 502m-102.6 0a102.6 102.6 0 1 0 205.2 0 102.6 102.6 0 1 0-205.2 0Z" fill="#0C5054" p-id="2037"></path><path d="M660.5 870.5c-43.9 0-96.1-25.1-151-72.5-54.8-47.3-106.8-112.2-150.3-187.6-51.3-88.8-84.3-181.4-92.8-260.5-8.9-82 9.5-140.6 51.9-165C332 177 347.7 173 365.1 173c43.9 0 96.1 25.1 151 72.5 54.8 47.3 106.8 112.2 150.3 187.6 51.3 88.8 84.3 181.4 92.8 260.5 8.9 82-9.6 140.6-51.9 165-13.8 7.9-29.5 11.9-46.8 11.9zM365 192.9c-13.8 0-26.1 3.1-36.8 9.2-17.2 10-29.7 27.6-36.9 52.5-7.3 25.2-9.1 56.5-5.1 93.1 8.3 76.4 40.3 166.2 90.3 252.6 42.4 73.5 92.9 136.6 146 182.4 50.5 43.6 99.5 67.7 137.9 67.7 13.8 0 26.1-3.1 36.7-9.2 17.3-10 29.7-27.6 36.9-52.5 7.3-25.2 9.1-56.5 5.1-93.1-8.3-76.4-40.3-166.2-90.3-252.6-42.4-73.5-92.9-136.6-146-182.4-50.4-43.6-99.4-67.7-137.8-67.7z" fill="#0C5054" p-id="2038"></path><path d="M365 870.5c-17.3 0-33.1-4-46.8-11.9-42.3-24.4-60.8-83-51.9-165 8.6-79.1 41.5-171.7 92.8-260.5 43.5-75.4 95.5-140.2 150.3-187.6 54.9-47.5 107.1-72.5 151-72.5 17.3 0 33.1 4 46.7 11.9 42.3 24.4 60.8 83 51.9 165-8.6 79.1-41.5 171.7-92.8 260.5-43.5 75.4-95.5 140.2-150.3 187.6-54.8 47.4-107.1 72.5-150.9 72.5z m295.5-677.6c-38.4 0-87.4 24-137.9 67.7-53.1 45.9-103.6 109-146 182.4-49.9 86.5-82 176.2-90.3 252.6-4 36.5-2.2 67.8 5.1 93.1 7.2 24.9 19.7 42.5 36.9 52.5 10.6 6.1 23 9.2 36.8 9.2 38.4 0 87.4-24 137.9-67.7 53.1-45.9 103.6-109 146-182.4 49.9-86.5 82-176.2 90.3-252.6 4-36.5 2.2-67.8-5.1-93.1-7.2-24.9-19.7-42.5-36.9-52.5-10.7-6.1-23.1-9.2-36.8-9.2z" fill="#0C5054" p-id="2039"></path><path d="M512.7 699c-102.6 0-199.2-17.7-272-49.9-75.4-33.3-117-78.6-117-127.4s41.5-94.1 117-127.4c72.8-32.1 169.4-49.9 272-49.9s199.2 17.7 272 49.9c75.4 33.3 117 78.6 117 127.4s-41.5 94.1-117 127.4c-72.8 32.2-169.4 49.9-272 49.9z m0-334.6c-99.9 0-193.6 17.1-263.9 48.1-33.6 14.8-59.9 32-78 50.9-17.9 18.7-27 38.3-27 58.2s9.1 39.5 27 58.2c18.2 19 44.4 36.1 78 50.9 70.3 31 164.1 48.1 263.9 48.1s193.6-17.1 263.9-48.1c33.6-14.8 59.9-32 78-50.9 17.9-18.7 27-38.3 27-58.2s-9.1-39.5-27-58.2c-18.2-19-44.4-36.1-78-50.9-70.3-31-164-48.1-263.9-48.1z" fill="#0C5054" p-id="2040"></path></svg>