<?xml version="1.0" standalone="no"?><!DOCTYPE svg PUBLIC "-//W3C//DTD SVG 1.1//EN" "http://www.w3.org/Graphics/SVG/1.1/DTD/svg11.dtd"><svg t="1553178934974" class="icon" style="" viewBox="0 0 1024 1024" version="1.1" xmlns="http://www.w3.org/2000/svg" p-id="7612" xmlns:xlink="http://www.w3.org/1999/xlink" width="200" height="200"><defs><style type="text/css"></style></defs><path d="M512 32c-265.6 0-480 214.4-480 480s214.4 480 480 480 480-214.4 480-480-214.4-480-480-480zM737.6 737.6c-102.4 100.8-256 120-377.6 54.4-11.2-4.8-22.4-6.4-33.6-1.6l-65.6 27.2c-14.4 6.4-30.4 3.2-41.6-8-11.2-11.2-14.4-27.2-8-41.6l27.2-64c4.8-11.2 4.8-22.4-1.6-33.6-68.8-121.6-52.8-278.4 51.2-382.4 124.8-124.8 324.8-124.8 449.6 0 124.8 124.8 124.8 324.8 0 449.6z" fill="#1296db" p-id="7613"></path><path d="M315.2 313.6c-91.2 91.2-105.6 227.2-44.8 336 12.8 20.8 12.8 44.8 4.8 67.2l-22.4 54.4c0 1.6 0 3.2 1.6 4.8 1.6 1.6 3.2 1.6 4.8 1.6 19.2-8 38.4-16 56-24 19.2-8 43.2-8 64 3.2 105.6 57.6 241.6 41.6 331.2-48 108.8-108.8 108.8-286.4 0-395.2-108.8-108.8-286.4-108.8-395.2 0zM512 688c-97.6 0-176-78.4-176-176s78.4-176 176-176 176 78.4 176 176-78.4 176-176 176z" fill="#1296db" p-id="7614"></path><path d="M512 374.4c-76.8 0-137.6 62.4-137.6 137.6 0 76.8 60.8 137.6 137.6 137.6s137.6-62.4 137.6-137.6c0-76.8-62.4-137.6-137.6-137.6z" fill="#1296db" p-id="7615"></path></svg>