<?xml version="1.0" standalone="no"?><!DOCTYPE svg PUBLIC "-//W3C//DTD SVG 1.1//EN" "http://www.w3.org/Graphics/SVG/1.1/DTD/svg11.dtd"><svg t="1553178824628" class="icon" style="" viewBox="0 0 1108 1024" version="1.1" xmlns="http://www.w3.org/2000/svg" p-id="5449" xmlns:xlink="http://www.w3.org/1999/xlink" width="216.40625" height="200"><defs><style type="text/css"></style></defs><path d="M553.514756-1.4e-05C226.942637-1.4e-05-1.4e-05 199.265682-1.4e-05 448.346112c0 157.749588 71.953866 296.124902 235.239926 376.388206l0 199.265696 282.295208-130.078038c11.06889 0 24.903989 2.766209 35.979636 2.766209 326.57212 0 553.508013-199.26029 553.508013-448.342072C1107.02277 199.265682 880.086876-1.4e-05 553.514756-1.4e-05L553.514756-1.4e-05zM276.757371 525.837802c-47.049877 0-83.029513-35.979636-83.029513-83.028161 0-47.049877 35.979636-83.029513 83.029513-83.029513 47.048526 0 83.022756 35.979636 83.022756 83.029513C359.780127 489.858166 323.805897 525.837802 276.757371 525.837802L276.757371 525.837802zM553.514756 525.837802c-47.049877 0-83.029513-35.979636-83.029513-83.028161 0-47.049877 35.979636-83.029513 83.029513-83.029513 47.04312 0 83.022756 35.979636 83.022756 83.029513C636.537512 489.858166 600.557877 525.837802 553.514756 525.837802L553.514756 525.837802zM830.265385 525.837802c-47.04312 0-83.022756-35.979636-83.022756-83.028161 0-47.049877 35.979636-83.029513 83.022756-83.029513 47.049877 0 83.029513 35.979636 83.029513 83.029513C913.294897 489.858166 877.315262 525.837802 830.265385 525.837802L830.265385 525.837802zM830.265385 525.837802" p-id="5450"></path></svg>