<?xml version="1.0" standalone="no"?><!DOCTYPE svg PUBLIC "-//W3C//DTD SVG 1.1//EN" "http://www.w3.org/Graphics/SVG/1.1/DTD/svg11.dtd"><svg t="1555087985248" class="icon" style="" viewBox="0 0 1024 1024" version="1.1" xmlns="http://www.w3.org/2000/svg" p-id="2889" xmlns:xlink="http://www.w3.org/1999/xlink" width="200" height="200"><defs><style type="text/css"></style></defs><path d="M801.388946 923.742599 216.137619 923.742599c0 0 55.856146-49.429783 151.255912-56.844659 0 0-285.706067-78.099752-301.029054-418.178171l889.741203 0c0 0-38.555108 317.340555-305.477366 420.155199C744.544287 864.426655 801.388946 923.742599 801.388946 923.742599zM270.015713 115.066689c55.361889 81.559551 163.613358 273.842879 163.613358 273.842879L263.096117 388.909567c0 0-90.457198-168.55695-110.22952-202.663746C120.736828 131.37819 228.989321 55.256488 270.015713 115.066689zM512.717338 524.347213c0 0-149.278885 80.07678-108.745726 182.397167 22.243607 57.338916 57.833173 50.912553 57.833173 50.912553L506.786255 647.428436l0 208.100572c0 0 54.867632-55.856146 108.745726-148.784628S512.717338 524.347213 512.717338 524.347213z" p-id="2890" fill="#8a8a8a"></path></svg>