<?xml version="1.0" standalone="no"?><!DOCTYPE svg PUBLIC "-//W3C//DTD SVG 1.1//EN" "http://www.w3.org/Graphics/SVG/1.1/DTD/svg11.dtd"><svg t="1546102125007" class="icon" style="" viewBox="0 0 1035 1024" version="1.1" xmlns="http://www.w3.org/2000/svg" p-id="8847" xmlns:xlink="http://www.w3.org/1999/xlink" width="129.375" height="128"><defs><style type="text/css"></style></defs><path d="M666.83188 835.098947c-26.854977-69.100752-53.76-142.782556-80.915248-220.625804-6.544361-18.766917 7.383579-38.380752 27.259188-38.380752h272.372451c48.932571 0 88.591398-39.658827 88.591398-88.595248 0-28.129203-13.146466-54.010226-35.147067-70.679098a28.87218 28.87218 0 0 1-8.580813-35.53203 88.137143 88.137143 0 0 0 8.704-38.361504c0-32.56782-17.685173-61.994346-45.648842-77.523729-16.611128-9.223699-19.937203-31.697805-6.709894-45.337023a61.174376 61.174376 0 0 0 17.334857-42.80012 61.459248 61.459248 0 0 0-31.828692-53.875489 28.87218 28.87218 0 0 1-14.894195-26.246736c0.019248-20.187429-15.375398-35.578226-34.377143-35.578226H377.744361a97.476331 97.476331 0 0 0-3.764932-0.127038H85.557895a25.022556 25.022556 0 0 0-25.026406 25.014858V574.094436a25.011008 25.011008 0 0 0 25.026406 25.022556h232.193925a28.87218 28.87218 0 0 1 25.557654 15.436993c28.529564 54.279699 57.929143 99.512782 87.205534 132.003609 31.243549 34.665865 50.661053 70.825383 60.797112 108.963609 7.237293 27.224541 8.892632 47.196391 9.254497 83.332812 0.10009 10.132211 0.261774 15.718015 0.627488 19.482947 89.411368 26.708692 196.661895-56.539429 165.637775-123.241864z m52.778346-23.44421c55.646316 122.071579-113.305985 248.681865-246.972632 197.93997-16.961444-8.192-24.560602-20.822617-27.640301-36.725414-1.670737-8.650105-1.997955-15.598677-2.175037-33.441684-0.31182-31.609263-1.655338-47.766135-7.314286-69.073804-7.803188-29.357233-22.828271-57.332451-47.889323-85.142136-30.042466-33.337744-59.122526-76.919338-87.159339-128.354165H85.557895c-45.725835 0-82.770767-37.048782-82.770767-82.763068V86.451008C2.787128 40.740571 39.843609 3.695639 85.557895 3.695639h288.425383c1.555248 0 3.106647 0.038496 4.658045 0.127038h444.346707c46.08385 0 84.264421 33.815098 91.066707 77.985684a119.130466 119.130466 0 0 1 47.781534 95.459128 118.930286 118.930286 0 0 1-14.085775 56.262255A146.162526 146.162526 0 0 1 996.86015 342.924511c0 14.609323-2.15194 28.941474-6.313383 42.623038a146.012391 146.012391 0 0 1 41.337263 101.949594c0 80.830556-65.512902 146.339609-146.335759 146.339609h-231.620331c22.250827 62.814316 44.247579 122.506586 65.682286 177.817985z" p-id="8848"></path><path d="M281.022556 618.268872V37.052632a28.87218 28.87218 0 1 1 57.744361 0v581.21624a28.87218 28.87218 0 1 1-57.744361 0z" p-id="8849"></path></svg>