<?xml version="1.0" standalone="no"?><!DOCTYPE svg PUBLIC "-//W3C//DTD SVG 1.1//EN" "http://www.w3.org/Graphics/SVG/1.1/DTD/svg11.dtd"><svg t="1554264293258" class="icon" style="" viewBox="0 0 1024 1024" version="1.1" xmlns="http://www.w3.org/2000/svg" p-id="7665" xmlns:xlink="http://www.w3.org/1999/xlink" width="200" height="200"><defs><style type="text/css"></style></defs><path d="M335.325338 0h19.014314V625.095551c0 3.169052 0.396132 6.338104 0.396131 9.507157 0.396132 3.169052 0.792263 6.338104 1.188395 9.111025 3.961315 24.164023 13.468472 47.535783 28.125338 67.738491 7.130368 10.29942 15.845261 19.410445 25.352418 27.333076 9.507157 8.318762 19.806576 15.052998 30.898259 20.598839 21.787234 11.487814 46.347389 17.033656 71.303675 17.033656 24.956286-0.396132 49.516441-5.941973 71.303676-17.033656 11.091683-5.545841 21.391103-12.676209 30.898259-20.598839 9.507157-7.922631 18.22205-17.033656 25.352418-27.333076 14.656867-20.202708 24.164023-43.574468 28.125338-67.738491 0.396132-3.169052 0.792263-5.941973 1.188395-9.111025 0-3.169052 0.792263-6.338104 0.396131-9.507157V0h19.014313v625.491683c0 3.565184-0.396132 7.130368-0.792263 10.29942-0.396132 3.565184-0.792263 6.734236-1.188394 10.299419-4.357447 27.333075-15.052998 53.477756-31.294391 76.057254-7.922631 11.487814-17.825919 21.391103-28.125338 30.502127-10.695551 9.111025-22.183366 17.033656-34.463443 22.975629-24.560155 12.676209-51.89323 19.014313-80.018569 19.410445-28.125338-0.396132-55.458414-6.338104-80.018569-19.410445-12.280077-6.338104-24.164023-13.864603-34.463443-22.975629-10.695551-9.111025-20.202708-19.410445-28.125338-30.502127-16.241393-22.579497-26.936944-48.724178-31.294391-76.057254-0.396132-3.565184-0.792263-6.734236-1.188394-10.299419 0-3.565184-0.792263-6.734236-0.792263-10.29942V0z" fill="#1296db" p-id="7666"></path><path d="M316.311025 0h19.014313v625.491683c0 3.565184 0.396132 7.130368 0.792264 10.29942 0.396132 3.565184 0.792263 6.734236 1.188394 10.299419 4.357447 27.333075 15.052998 53.477756 31.294391 76.057254 7.922631 11.487814 17.825919 21.391103 28.125338 30.502127 10.695551 9.111025 22.183366 17.033656 34.463443 22.975629 24.560155 12.676209 51.89323 19.014313 80.018569 19.410445 28.125338-0.396132 55.458414-6.338104 80.018569-19.410445 12.280077-6.338104 24.164023-13.864603 34.463443-22.975629 10.695551-9.111025 20.202708-19.410445 28.125338-30.502127 16.241393-22.579497 26.936944-48.724178 31.294391-76.057254 0.396132-3.565184 0.792263-6.734236 1.188394-10.299419 0-3.565184 0.792263-6.734236 0.792263-10.29942V0h19.014314v626.680077c0 3.961315-0.396132 7.526499-0.792263 11.487815s-0.792263 7.526499-1.584526 11.487814c-4.753578 30.105996-16.637524 59.419729-34.859575 84.376015-9.111025 12.676209-19.410445 23.767892-31.294391 34.067312-11.487814 9.903288-24.560155 18.618182-38.028626 25.748549-27.333075 14.260735-57.835203 20.994971-88.733463 21.391103-30.898259 0-61.400387-7.130368-88.733462-21.391103-13.864603-7.130368-26.540812-15.44913-38.028627-25.748549-11.487814-9.903288-22.183366-21.391103-31.29439-34.067312-18.22205-24.956286-30.105996-53.873888-34.859575-84.376015-0.396132-3.961315-1.188395-7.526499-1.584526-11.487814 0-3.961315-0.792263-7.526499-0.792263-11.487815V0z" fill="#1296db" p-id="7667"></path><path d="M297.296712 0h19.014313v626.680077c0 3.961315 0.396132 7.526499 0.792263 11.487815s0.792263 7.526499 1.584526 11.487814c4.753578 30.105996 16.637524 59.419729 34.859575 84.376015 9.111025 12.676209 19.410445 23.767892 31.29439 34.067312 11.487814 9.903288 24.560155 18.618182 38.028627 25.748549 27.333075 14.260735 57.835203 20.994971 88.733462 21.391103 30.898259 0 61.400387-7.130368 88.733463-21.391103 13.864603-7.130368 26.540812-15.44913 38.028626-25.748549 11.487814-9.903288 22.183366-21.391103 31.294391-34.067312 18.22205-24.956286 30.105996-53.873888 34.859575-84.376015 0.396132-3.961315 1.188395-7.526499 1.584526-11.487814 0-3.961315 0.792263-7.526499 0.792263-11.487815V0h19.014313V627.076209c0 4.357447-0.396132 8.318762-0.792263 12.676209s-1.188395 8.318762-1.584526 12.676209c-5.14971 33.275048-18.22205 65.361702-38.028627 92.694777-9.903288 13.864603-21.391103 26.144681-34.463443 37.236364-12.676209 11.091683-26.936944 20.598839-41.989942 28.125338-30.105996 15.44913-63.381044 23.37176-97.448356 23.371761-34.067311 0-67.34236-7.922631-97.448355-23.371761-15.052998-7.526499-29.313733-17.033656-41.989942-28.125338-12.676209-11.091683-24.560155-23.37176-34.463443-37.236364-19.806576-27.333075-32.878917-59.419729-38.028627-92.694777-0.396132-4.357447-1.188395-8.318762-1.584526-12.676209-0.396132-4.357447-0.792263-8.318762-0.792263-12.676209V0z" fill="#1296db" p-id="7668"></path><path d="M278.282398 0H297.296712V627.076209c0 4.357447 0.396132 8.318762 0.792263 12.676209s1.188395 8.318762 1.584526 12.676209c5.14971 33.275048 18.22205 65.361702 38.028627 92.694777 9.903288 13.864603 21.391103 26.144681 34.463443 37.236364 12.676209 11.091683 26.936944 20.598839 41.989942 28.125338 30.105996 15.44913 63.381044 23.37176 97.448355 23.371761 34.067311 0 67.34236-7.922631 97.448356-23.371761 15.052998-7.526499 29.313733-17.033656 41.989942-28.125338 12.676209-11.091683 24.560155-23.37176 34.463443-37.236364 19.806576-27.333075 32.878917-59.419729 38.028627-92.694777 0.396132-4.357447 1.188395-8.318762 1.584526-12.676209 0.396132-4.357447 0.792263-8.318762 0.792263-12.676209V0h19.014313V627.47234c0 4.753578-0.792263 9.111025-0.792263 13.864604-0.396132 4.753578-1.188395 9.111025-1.584526 13.864603-5.545841 36.047969-19.806576 70.907544-41.59381 100.617409-10.695551 15.052998-23.37176 28.52147-37.236364 40.405415-13.864603 11.883946-29.313733 22.183366-45.555125 30.502128-32.482785 17.033656-69.323017 25.352418-106.16325 25.352418s-73.284333-8.714894-106.16325-25.352418c-16.241393-8.318762-31.690522-18.618182-45.555125-30.502128s-26.540812-25.352418-37.236364-40.405415c-21.787234-29.709865-36.047969-64.569439-41.59381-100.617409-0.396132-4.357447-1.188395-9.111025-1.584526-13.864603-0.396132-4.753578-0.792263-9.111025-0.792263-13.864604V0z" fill="#1296db" p-id="7669"></path><path d="M259.268085 0h19.014313V627.47234c0 4.753578 0.792263 9.111025 0.792264 13.864604 0.396132 4.753578 1.188395 9.111025 1.584526 13.864603 5.545841 36.047969 19.806576 70.907544 41.59381 100.617409 10.695551 15.052998 23.37176 28.52147 37.236364 40.405415 13.864603 11.883946 29.313733 22.183366 45.555125 30.502128 32.482785 17.033656 69.323017 25.352418 106.16325 25.352418s73.284333-8.714894 106.163249-25.352418c16.241393-8.318762 31.690522-18.618182 45.555126-30.502128s26.540812-25.352418 37.236364-40.405415c21.787234-29.709865 36.047969-64.569439 41.59381-100.617409 0.396132-4.357447 1.188395-9.111025 1.584526-13.864603 0.396132-4.753578 0.792263-9.111025 0.792263-13.864604V0h19.014314v628.660735c0 5.14971-0.792263 9.903288-0.792263 15.052998-0.396132 4.753578-1.188395 9.903288-1.980658 14.656867-3.169052 19.410445-8.318762 38.82089-15.845261 57.04294s-17.429787 35.651838-28.917602 51.89323c-11.487814 16.241393-25.352418 30.898259-40.405415 43.574468-15.052998 13.07234-31.690522 24.164023-49.516441 33.275048-35.255706 18.22205-74.868859 27.333075-114.878144 27.729207-39.613153 0-79.622437-9.507157-114.878143-27.729207-17.825919-9.111025-34.463443-20.202708-49.516441-33.275048-15.052998-13.07234-28.917602-27.729207-40.405416-43.574468-11.487814-16.241393-21.391103-33.275048-28.917601-51.89323-7.526499-18.22205-13.07234-37.632495-15.845261-57.04294-0.792263-4.753578-1.188395-9.903288-1.980658-14.656867-0.396132-5.14971-0.792263-9.903288-0.792263-15.052998v-7.526499V0z" fill="#1296db" p-id="7670"></path><path d="M240.253772 0h19.014313v628.660735c0 5.14971 0.792263 9.903288 0.792263 15.052998 0.396132 4.753578 1.188395 9.903288 1.980658 14.656867 3.169052 19.410445 8.318762 38.82089 15.845261 57.04294s17.429787 35.651838 28.917601 51.89323c11.487814 16.241393 25.352418 30.898259 40.405416 43.574468 15.052998 13.07234 31.690522 24.164023 49.516441 33.275048 35.255706 18.22205 74.868859 27.333075 114.878143 27.729207 39.613153 0 79.622437-9.507157 114.878144-27.729207 17.825919-9.111025 34.463443-20.202708 49.516441-33.275048 15.052998-13.07234 28.917602-27.729207 40.405415-43.574468 11.487814-16.241393 21.391103-33.275048 28.917602-51.89323 7.526499-18.22205 13.07234-37.632495 15.845261-57.04294 0.792263-4.753578 1.188395-9.903288 1.980658-14.656867 0.396132-5.14971 0.792263-9.903288 0.792263-15.052998v-7.526499V0h19.014313v596.574081c0 11.091683 0 22.183366-0.396131 32.878917 0 5.14971-0.792263 10.695551-1.188395 15.845261-0.396132 5.14971-1.188395 10.695551-1.980658 15.845261-3.169052 20.994971-9.111025 41.59381-17.033655 61.400387s-18.618182 38.424758-31.294391 55.854546c-12.280077 17.429787-27.333075 32.878917-43.178337 47.139651-16.241393 13.864603-34.067311 25.748549-53.081624 35.651838-38.028627 19.806576-80.810832 29.709865-123.196906 29.709865-42.782205 0-85.56441-9.903288-123.196905-29.709865-19.014313-9.507157-36.840232-21.787234-53.081625-35.651838s-30.898259-29.709865-43.178336-47.139651c-12.280077-17.429787-22.975629-36.047969-31.294391-55.854546-7.922631-19.806576-13.864603-40.405416-17.033655-61.400387-0.792263-5.14971-1.584526-10.695551-1.980658-15.845261-0.396132-5.14971-1.188395-10.695551-1.188395-15.845261-0.396132-10.695551-0.396132-21.787234-0.396131-32.878917V0z" fill="#1296db" p-id="7671"></path><path d="M221.239458 0h19.014314v596.574081c0 11.091683 0 22.183366 0.396131 32.878917 0 5.14971 0.792263 10.695551 1.188395 15.845261 0.396132 5.14971 1.188395 10.695551 1.980658 15.845261 3.169052 20.994971 9.111025 41.59381 17.033655 61.400387s18.618182 38.424758 31.294391 55.854546c12.280077 17.429787 27.333075 32.878917 43.178336 47.139651 16.241393 13.864603 34.067311 25.748549 53.081625 35.651838 38.028627 19.806576 80.810832 29.709865 123.196905 29.709865 42.782205 0 85.56441-9.903288 123.196906-29.709865 19.014313-9.507157 36.840232-21.787234 53.081624-35.651838s30.898259-29.709865 43.178337-47.139651c12.280077-17.429787 22.975629-36.047969 31.294391-55.854546 7.922631-19.806576 13.864603-40.405416 17.033655-61.400387 0.792263-5.14971 1.584526-10.695551 1.980658-15.845261 0.396132-5.14971 1.188395-10.695551 1.188395-15.845261 0.396132-10.695551 0.396132-21.787234 0.396131-32.878917V0h19.014314v596.574081c0 11.091683 0 21.787234-0.396132 33.67118 0 5.545841-0.792263 11.487814-1.188395 17.033656-0.396132 5.545841-1.188395 11.487814-1.980657 17.033656-3.565184 22.579497-9.903288 44.762863-18.222051 65.757833-8.714894 20.994971-20.202708 41.197679-33.275048 59.815861-13.468472 18.618182-28.917602 35.255706-46.347389 50.308704-17.429787 15.052998-36.444101 27.729207-56.646808 38.028627-40.801547 20.994971-86.356673 31.690522-131.911799 31.690522-45.555126 0-91.506383-10.695551-131.911799-31.690522-20.202708-10.29942-39.613153-22.975629-56.646808-38.028627-17.429787-15.052998-32.878917-31.690522-46.347389-50.308704-13.468472-18.618182-24.956286-38.424758-33.275048-59.815861-8.714894-20.994971-14.656867-43.178337-18.222051-65.757833-0.792263-5.545841-1.584526-11.487814-1.980657-17.033656-0.396132-5.545841-1.188395-11.487814-1.188395-17.033656-0.396132-11.487814-0.396132-22.183366-0.396132-33.67118V0z" fill="#1296db" p-id="7672"></path><path d="M202.225145 0h19.014313v596.574081c0 11.091683 0 21.787234 0.396132 33.67118 0 5.545841 0.792263 11.487814 1.188395 17.033656 0.396132 5.545841 1.188395 11.487814 1.980657 17.033656 3.565184 22.579497 9.903288 44.762863 18.22205 65.757833 8.714894 20.994971 20.202708 41.197679 33.275049 59.815861 13.468472 18.618182 28.917602 35.255706 46.347389 50.308704 17.429787 15.052998 36.444101 27.729207 56.646808 38.028627 40.801547 20.994971 86.356673 31.690522 131.911799 31.690522 45.555126 0 91.506383-10.695551 131.911799-31.690522 20.202708-10.29942 39.613153-22.975629 56.646808-38.028627 17.429787-15.052998 32.878917-31.690522 46.347389-50.308704 13.468472-18.618182 24.956286-38.424758 33.275048-59.815861 8.714894-20.994971 14.656867-43.178337 18.222051-65.757833 0.792263-5.545841 1.584526-11.487814 1.980657-17.033656 0.396132-5.545841 1.188395-11.487814 1.188395-17.033656 0.396132-11.487814 0.396132-22.183366 0.396131-33.67118V0h19.014314V621.530368l-0.396132 9.111025c0 5.941973-0.792263 12.280077-1.188394 18.22205-0.396132 5.941973-1.584526 12.280077-2.376789 18.22205-3.961315 24.164023-10.29942 47.535783-19.806577 70.115281-9.111025 22.579497-21.391103 43.9706-35.651837 63.777176-14.260735 19.806576-30.898259 37.632495-49.516441 53.477756-18.22205 15.845261-38.82089 29.709865-60.608124 40.405416-43.178337 22.579497-92.298646 33.67118-140.626693 34.067311-48.724178 0-97.448356-11.487814-140.626692-34.067311-21.787234-11.091683-41.989942-24.560155-60.608124-40.405416-18.618182-15.845261-35.255706-33.67118-49.516441-53.477756-14.260735-19.806576-26.540812-41.197679-35.651837-63.777176-9.111025-22.579497-15.845261-46.347389-19.806577-70.115281-0.792263-5.941973-1.584526-11.883946-2.376789-18.22205-0.396132-5.941973-1.188395-12.280077-1.188395-18.22205l1.980658-8.714894V0z" fill="#1296db" p-id="7673"></path><path d="M183.210832 0H202.225145V621.530368l0.396132 9.111025c0 5.941973 0.792263 12.280077 1.188394 18.22205 0.396132 5.941973 1.584526 12.280077 2.376789 18.22205 3.961315 24.164023 10.29942 47.535783 19.806577 70.115281 9.111025 22.579497 21.391103 43.9706 35.651837 63.777176 14.260735 19.806576 30.898259 37.632495 49.516441 53.477756 18.22205 15.845261 38.82089 29.709865 60.608124 40.405416 43.178337 22.579497 92.298646 33.67118 140.626693 34.067311 48.724178 0 97.448356-11.487814 140.626692-34.067311 21.787234-11.091683 41.989942-24.560155 60.608124-40.405416 18.618182-15.845261 35.255706-33.67118 49.516441-53.477756 14.260735-19.806576 26.540812-41.197679 35.651837-63.777176 9.111025-22.579497 15.845261-46.347389 19.806577-70.115281 0.792263-5.941973 1.584526-11.883946 2.376789-18.22205 0.396132-5.941973 1.188395-12.280077 1.188394-18.22205l0.396132-9.111025V0h19.014313V621.530368l-0.396131 9.507156c0 6.338104-0.792263 13.07234-1.188395 19.410445-0.792263 6.338104-1.584526 12.676209-2.376789 19.410445-3.961315 25.352418-11.091683 50.704836-20.994971 74.472727-9.903288 24.164023-22.579497 46.74352-37.632495 67.34236-15.052998 20.994971-32.878917 40.009284-52.289362 56.646808-19.410445 17.033656-41.197679 31.294391-64.173307 43.178337-45.951257 23.767892-97.844487 35.651838-149.341586 36.047969-51.497099 0-103.390329-12.280077-149.341586-36.047969-22.975629-11.883946-44.762863-26.144681-64.173308-43.178337-19.410445-16.637524-37.236364-35.651838-52.289362-56.646808-15.052998-20.994971-28.125338-43.574468-37.632495-67.34236-9.903288-23.767892-16.637524-49.120309-20.994971-74.472727-0.792263-6.338104-1.584526-12.676209-2.376789-19.410445-0.396132-6.338104-1.188395-12.676209-1.188395-19.410445l-0.396131-9.507156V0z" fill="#1296db" p-id="7674"></path><path d="M164.196518 0h19.014314V621.530368l0.396131 9.507156c0 6.338104 0.792263 13.07234 1.188395 19.410445 0.792263 6.338104 1.584526 12.676209 2.376789 19.410445 3.961315 25.352418 11.091683 50.704836 20.994971 74.472727 9.903288 24.164023 22.579497 46.74352 37.632495 67.34236 15.052998 20.994971 32.878917 40.009284 52.289362 56.646808 19.410445 17.033656 41.197679 31.294391 64.173307 43.178337 45.951257 23.767892 97.844487 35.651838 149.341586 36.047969 51.497099 0 103.390329-12.280077 149.341587-36.047969 22.975629-11.883946 44.762863-26.144681 64.173307-43.178337 19.410445-16.637524 37.236364-35.651838 52.289362-56.646808 15.052998-20.994971 28.125338-43.574468 37.632495-67.34236 9.903288-23.767892 16.637524-49.120309 20.994971-74.472727 0.792263-6.338104 1.584526-12.676209 2.376789-19.410445 0.396132-6.338104 1.188395-12.676209 1.188395-19.410445l0.396131-9.507156V0h19.014314V621.530368l-0.396132 10.299419c0 6.734236-0.792263 13.468472-1.188395 20.59884l-2.376789 20.202708c-4.357447 26.936944-11.487814 53.477756-22.183365 78.830174-10.29942 25.352418-23.767892 49.120309-40.009285 71.303675-15.845261 22.183366-34.859574 42.386074-55.458414 60.211992-20.598839 17.825919-43.574468 33.275048-67.738491 45.555126-48.724178 25.352418-103.390329 38.028627-158.05648 38.028626-54.270019 0-109.332302-13.07234-158.056479-38.028626-24.560155-12.280077-47.139652-27.729207-67.738492-45.555126-20.598839-17.825919-39.613153-38.028627-55.458413-60.211992s-29.709865-45.951257-40.009285-71.303675c-10.29942-25.352418-17.825919-51.89323-22.183365-78.830174-0.792263-6.734236-1.980658-13.468472-2.37679-20.202708-0.396132-6.734236-1.188395-13.468472-1.188394-20.59884l-0.396132-10.299419V0z" fill="#1296db" p-id="7675"></path><path d="M145.182205 0h19.014313V621.530368l0.396132 10.299419c0 6.734236 0.792263 13.468472 1.188394 20.59884l2.37679 20.202708c4.357447 26.936944 11.487814 53.477756 22.183365 78.830174 10.29942 25.352418 23.767892 49.120309 40.009285 71.303675 15.845261 22.183366 34.859574 42.386074 55.458413 60.211992 20.598839 17.825919 43.574468 33.275048 67.738492 45.555126 48.724178 25.352418 103.390329 38.028627 158.056479 38.028626 54.270019 0 109.332302-13.07234 158.05648-38.028626 24.560155-12.280077 47.139652-27.729207 67.738491-45.555126 20.598839-17.825919 39.613153-38.028627 55.458414-60.211992s29.709865-45.951257 40.009285-71.303675c10.29942-25.352418 17.825919-51.89323 22.183365-78.830174 0.792263-6.734236 1.980658-13.468472 2.376789-20.202708 0.396132-6.734236 1.188395-13.468472 1.188395-20.59884l0.396132-10.299419V0h19.014313V621.926499l-0.396132 10.695551c0 7.130368-0.792263 14.260735-1.188394 21.391103-0.792263 7.130368-1.584526 14.260735-2.772921 21.391102-4.357447 28.52147-12.280077 56.646809-23.37176 83.187621-10.695551 26.936944-25.352418 51.89323-41.989942 75.264991-16.637524 23.37176-36.444101 44.762863-58.231335 63.381044-21.787234 18.618182-45.951257 34.859574-71.699806 47.931915-51.100967 26.540812-109.332302 40.009284-166.771374 40.009284S396.329594 971.710638 344.832495 945.169826c-25.748549-13.07234-49.912573-29.313733-71.699806-47.931915-21.787234-18.618182-41.59381-40.009284-58.231335-63.381044-16.637524-23.37176-31.294391-48.724178-41.989942-75.264991-11.091683-26.540812-18.618182-54.666151-23.37176-83.187621-0.792263-7.130368-1.980658-14.260735-2.772921-21.391102-0.396132-7.130368-1.188395-14.260735-1.188394-21.391103l-0.396132-10.695551V0z" fill="#1296db" p-id="7676"></path><path d="M107.153578 0h19.014314V621.926499l0.396131 11.487814c0 7.526499 0.792263 15.052998 1.584526 22.579497 0.792263 7.526499 1.584526 15.052998 2.772921 22.579498 4.753578 30.105996 13.07234 59.419729 24.560155 87.545067 11.487814 28.125338 26.540812 54.666151 44.366731 79.226306 17.825919 24.560155 38.424758 46.74352 61.400387 66.550097 22.975629 19.806576 48.328046 36.840232 75.26499 50.704835 53.873888 27.729207 114.878143 41.989942 175.486267 42.386074 60.211992 0 121.216248-14.260735 175.486267-42.386074 26.936944-13.864603 52.289362-30.898259 75.26499-50.704835 22.975629-19.806576 43.574468-41.989942 61.400387-66.550097 17.825919-24.560155 32.878917-51.100967 44.366731-79.226306 11.487814-28.125338 19.806576-57.439072 24.560155-87.545067 1.188395-7.526499 1.980658-15.052998 2.772921-22.579498 0.396132-7.526499 1.188395-15.052998 1.584526-22.579497l0.396131-11.487814V0h19.014314v622.322631l-0.396132 11.883945c0 7.922631-0.792263 15.845261-1.584526 23.767892s-1.980658 15.845261-2.772921 23.767892c-4.753578 31.294391-13.468472 62.588781-25.748549 91.902514-11.883946 29.709865-27.729207 57.439072-46.347389 83.187621-18.618182 25.748549-40.405416 49.120309-64.569439 69.719149-24.164023 20.598839-50.704836 38.424758-79.226305 53.081625-56.646809 29.313733-120.820116 44.366731-183.805029 44.366731-63.381044 0-127.554352-15.052998-183.805029-44.366731-28.52147-14.656867-55.062282-32.086654-79.226306-53.081625-24.164023-20.598839-45.951257-43.9706-64.569439-69.719149-18.618182-25.748549-34.463443-53.477756-46.347389-83.187621-12.280077-29.313733-20.598839-60.608124-25.748549-91.902514-1.188395-7.922631-1.980658-15.845261-2.772921-23.767892-0.396132-7.922631-1.584526-15.845261-1.584526-23.767892l-0.396132-11.883945V0z" fill="#1296db" p-id="7677"></path><path d="M126.167892 0h19.014313V621.926499l0.396132 10.695551c0 7.130368 0.792263 14.260735 1.188394 21.391103 0.792263 7.130368 1.584526 14.260735 2.772921 21.391102 4.357447 28.52147 12.280077 56.646809 23.37176 83.187621 10.695551 26.936944 25.352418 51.89323 41.989942 75.264991 16.637524 23.37176 36.444101 44.762863 58.231335 63.381044 21.787234 18.618182 45.951257 34.859574 71.699806 47.931915 51.100967 26.540812 109.332302 40.009284 166.771373 40.009284s115.274275-13.468472 166.771374-40.009284c25.748549-13.07234 49.912573-29.313733 71.699806-47.931915 21.787234-18.618182 41.59381-40.009284 58.231335-63.381044 16.637524-23.37176 31.294391-48.724178 41.989942-75.264991 11.091683-26.540812 18.618182-54.666151 23.37176-83.187621 0.792263-7.130368 1.980658-14.260735 2.772921-21.391102 0.396132-7.130368 1.188395-14.260735 1.188394-21.391103l0.396132-10.695551V0h19.014313V621.926499l-0.396131 11.487814c0 7.526499-0.792263 15.052998-1.584526 22.579497-0.792263 7.526499-1.584526 15.052998-2.772921 22.579498-4.753578 30.105996-13.07234 59.419729-24.560155 87.545067-11.487814 28.125338-26.540812 54.666151-44.366731 79.226306-17.825919 24.560155-38.424758 46.74352-61.400387 66.550097-22.975629 19.806576-48.328046 36.840232-75.26499 50.704835-53.873888 27.729207-114.878143 41.989942-175.486267 42.386074-60.211992 0-121.216248-14.260735-175.486267-42.386074-26.936944-13.864603-52.289362-30.898259-75.26499-50.704835-22.975629-19.806576-43.574468-41.989942-61.400387-66.550097-17.825919-24.560155-32.878917-51.100967-44.366731-79.226306-11.487814-28.125338-19.806576-57.439072-24.560155-87.545067-1.188395-7.526499-1.980658-15.052998-2.772921-22.579498-0.396132-7.526499-1.188395-15.052998-1.584526-22.579497l-0.396131-11.487814V0z" fill="#1296db" p-id="7678"></path></svg>