<?xml version="1.0" standalone="no"?><!DOCTYPE svg PUBLIC "-//W3C//DTD SVG 1.1//EN" "http://www.w3.org/Graphics/SVG/1.1/DTD/svg11.dtd"><svg t="1553183485197" class="icon" style="" viewBox="0 0 1024 1024" version="1.1" xmlns="http://www.w3.org/2000/svg" p-id="11235" xmlns:xlink="http://www.w3.org/1999/xlink" width="200" height="200"><defs><style type="text/css"></style></defs><path d="M934 240c49.624 0 90 40.376 90 90s-40.376 90-90 90h-48.144a119.216 119.216 0 0 1 16.144 60c0 66.168-53.832 120-120 120h-1.376c-6.184 68.24-33.2 130.552-74.664 180.48 109.056 7.4 196.04 101.624 196.04 213.52A30 30 0 0 1 872 1024H30A30 30 0 0 1 0 994c0-112.464 87.904-207.2 197.936-213.632-41.4-49.92-68.384-112.184-74.56-180.368h-1.376C56.224 600 0 546.848 0 480c0-66.832 56.208-120 122-120v-30C122 147.568 270.64 0 452 0c150.776 0 278.256 101.64 317.52 240h164.48zM122 540v-120c-33.608 0-62 27.472-62 60s28.392 60 62 60z m104.8-358.76A269.176 269.176 0 0 0 197.44 240h99.4c-10.792-30.416-37.488-53.352-70.04-58.76z m-44.8 148.76V360h120v-60H183.68a271.744 271.744 0 0 0-1.68 30z m657.008 634c-14.032-69.704-75.664-124-147.008-124h-50.48a328.16 328.16 0 0 1-189.52 60 328.16 328.16 0 0 1-189.52-60h-52.48c-71.344 0-132.968 54.296-147.008 124h776.016zM594.344 684.04a30 30 0 0 1-2.32 42.36A209.568 209.568 0 0 1 452 780c-51.72 0-101.44-19.04-140.016-53.6a30 30 0 1 1 40.04-44.68A149.64 149.64 0 0 0 452 720c36.92 0 72.432-13.6 99.984-38.28a30 30 0 0 1 42.36 2.32zM722 570V420h-540v150C182 718.88 303.12 840 452 840s270-121.12 270-270z m0-210v-30C722 181.12 600.88 60 452 60c-70.4 0-134.592 27.096-182.704 71.392 54.36 22.56 92.704 76.184 92.704 138.608V360h360z m60 180c33.08 0 60-26.92 60-60s-26.92-60-60-60v120z m152-180a30.032 30.032 0 0 0 30-30 30.032 30.032 0 0 0-30-30H780.624c0.896 9.888 1.376 19.888 1.376 30V360h152zM332 540a30 30 0 1 1 0-60 30 30 0 0 1 0 60z m240 0a30 30 0 1 1 0-60 30 30 0 0 1 0 60z" fill="#4A90E2" p-id="11236"></path></svg>