<?xml version="1.0" standalone="no"?><!DOCTYPE svg PUBLIC "-//W3C//DTD SVG 1.1//EN" "http://www.w3.org/Graphics/SVG/1.1/DTD/svg11.dtd"><svg t="1553179070698" class="icon" style="" viewBox="0 0 1198 1024" version="1.1" xmlns="http://www.w3.org/2000/svg" p-id="8888" xmlns:xlink="http://www.w3.org/1999/xlink" width="233.984375" height="200"><defs><style type="text/css"></style></defs><path d="M1198.419467 999.032928h-49.934144a24.6425 24.6425 0 0 1 6.216801-16.028861 405.615056 405.615056 0 0 0-347.042304-385.216957A24.592566 24.592566 0 0 1 798.946312 599.559772a24.967072 24.967072 0 0 1 0-49.934144v-4.993415A249.670722 249.670722 0 0 0 749.012167 50.284183a24.967072 24.967072 0 0 1 0-49.934145 299.40513 299.40513 0 0 1 130.90236 568.774873A449.4073 449.4073 0 0 1 1198.419467 999.032928zM580.30966 569.124911A449.4073 449.4073 0 0 1 898.8146 999.032928a24.967072 24.967072 0 0 1-49.934144 0 24.6425 24.6425 0 0 1 6.216801-16.028861A406.239232 406.239232 0 0 0 42.918397 999.032928H0a449.4073 449.4073 0 0 1 318.504941-429.908017 299.604867 299.604867 0 1 1 261.804719 0zM449.4073 50.284183a249.670722 249.670722 0 1 0 249.670723 249.670722A249.670722 249.670722 0 0 0 449.4073 50.284183zM24.967072 974.065856a24.967072 24.967072 0 1 1-24.967072 24.967072 24.967072 24.967072 0 0 1 24.967072-24.967072z" p-id="8889"></path></svg>