<?xml version="1.0" standalone="no"?><!DOCTYPE svg PUBLIC "-//W3C//DTD SVG 1.1//EN" "http://www.w3.org/Graphics/SVG/1.1/DTD/svg11.dtd"><svg t="1556197131693" class="icon" style="" viewBox="0 0 1024 1024" version="1.1" xmlns="http://www.w3.org/2000/svg" p-id="9130" xmlns:xlink="http://www.w3.org/1999/xlink" width="200" height="200"><defs><style type="text/css"></style></defs><path d="M908.447091 337.861554h-153.071994l50.802895-183.147917c4.330103-15.62007-4.81927-31.793877-20.437384-36.123981s-31.795834 4.817313-36.125938 20.437384L694.460149 337.861554H427.332096l50.793112-183.118567c4.334017-15.62007-4.815357-31.793877-20.437384-36.123981-15.618114-4.33206-31.795834 4.817313-36.125938 20.437384l-55.146694 198.805164H181.766511c-16.209027 0-29.350001 13.140974-29.350001 29.350001 0 16.210984 13.140974 29.350001 29.350001 29.350001h168.369214l-63.965392 230.600998h-170.797437c-16.209027 0-29.350001 13.140974-29.350001 29.350001 0 16.210984 13.140974 29.350001 29.350001 29.350001h154.514057l-51.916238 187.170824c-4.334017 15.618114 4.81927 31.793877 20.437384 36.125937 15.618114 4.334017 31.791921-4.81927 36.125937-20.437383l56.269822-202.859378h267.126096l-51.910368 187.143431c-4.334017 15.618114 4.81927 31.793877 20.437384 36.125937 15.622027 4.334017 31.795834-4.81927 36.125937-20.437384l56.261995-202.830028h183.210531c16.209027 0 29.350001-13.139017 29.35-29.35 0-16.209027-13.140974-29.350001-29.35-29.350001H675.128282l63.965392-230.600999h169.355373c16.209027 0 29.350001-13.139017 29.350001-29.35-0.001957-16.210984-13.14293-29.351957-29.351957-29.351958zM614.209421 627.162554h-267.12414l63.963435-230.600998h267.126096l-63.965391 230.600998z" fill="#d4237a" p-id="9131"></path></svg>