<?xml version="1.0" standalone="no"?><!DOCTYPE svg PUBLIC "-//W3C//DTD SVG 1.1//EN" "http://www.w3.org/Graphics/SVG/1.1/DTD/svg11.dtd"><svg t="1554293217077" class="icon" style="" viewBox="0 0 1024 1024" version="1.1" xmlns="http://www.w3.org/2000/svg" p-id="8944" xmlns:xlink="http://www.w3.org/1999/xlink" width="200" height="200"><defs><style type="text/css"></style></defs><path d="M512 96C282.2 96 96 282.2 96 512c0 229.4 186.6 416 416 416 229.8 0 416-186.2 416-416 0-229.4-186.6-416-416-416z m254.6 161.4c17 17 32.2 35.4 45.2 55 1.4 2 1.8 4.8 0.8 7L783.8 402c-0.8 2-2.2 3.8-4.2 4.6l-115 52.4c-2.8 1.2-6 0.8-8.4-1.2l-113.2-95.2a8.2 8.2 0 0 1-2.8-6.2v-126.2c0-2.6 1.4-5.2 3.6-6.6l76.8-52.2c2-1.4 4.6-1.8 7-1 51.6 17.8 99.2 47.2 139 87z m-147.8 595.2c-0.8 2.4-2.8 4.2-5.2 4.8-32.6 9.6-66.8 14.4-101.6 14.4-35 0-69-5-101.6-14.4-2.4-0.8-4.4-2.6-5.2-4.8l-32.8-86c-0.8-2.2-0.6-4.6 0.4-6.6l44.6-84.6c1.4-2.6 4.2-4.2 7-4.2h175c3 0 5.6 1.6 7 4.2l44.6 84.6c1 2 1.2 4.4 0.4 6.6l-32.6 86z m-134.8-622v126.2c0 2.4-1 4.6-2.8 6.2L367.8 458c-2.4 2-5.6 2.4-8.4 1.2l-115-52.4c-2-1-3.6-2.6-4.2-4.6l-28.8-82.4c-0.8-2.4-0.6-5 0.8-7 13-19.6 28.2-38 45.2-55 39.8-39.8 87.4-69.2 139.2-86.6 2.4-0.8 5-0.4 7 1l76.8 52.2c2.2 1 3.6 3.4 3.6 6.2zM155.4 528.2l72.2-62.4c2.4-2 5.8-2.6 8.6-1.2l104.8 47.6c2.2 1 3.8 3 4.4 5.4l29.2 114.6c0.4 2 0.2 4-0.6 5.8l-46.4 87.8c-1.4 2.6-4.2 4.4-7.2 4.2l-92-1.2c-2.4 0-4.8-1.2-6.4-3.2-41-55.4-65-121.2-69.4-190.8 0-2.6 1-5 2.8-6.6z m540.8 197.4L650 638c-1-1.8-1.2-3.8-0.6-5.8l29.2-114.6c0.6-2.4 2.2-4.4 4.4-5.4l104.8-47.6c2.8-1.2 6.2-0.8 8.6 1.2l72.2 62.4c1.8 1.6 3 4 2.8 6.6-4.2 69.6-28.4 135.2-69.4 190.8-1.4 2-3.8 3.2-6.4 3.2l-92.2 1.2c-3-0.2-5.8-1.8-7.2-4.4z" fill="" p-id="8945"></path></svg>