<?xml version="1.0" standalone="no"?><!DOCTYPE svg PUBLIC "-//W3C//DTD SVG 1.1//EN" "http://www.w3.org/Graphics/SVG/1.1/DTD/svg11.dtd"><svg t="1553183849024" class="icon" style="" viewBox="0 0 1024 1024" version="1.1" xmlns="http://www.w3.org/2000/svg" p-id="13663" xmlns:xlink="http://www.w3.org/1999/xlink" width="200" height="200"><defs><style type="text/css"></style></defs><path d="M808.32 748.8h-563.2c-72.32 0-130.56-58.88-130.56-130.56V277.76c0-72.32 58.88-130.56 130.56-130.56h563.2c72.32 0 130.56 58.88 130.56 130.56v339.84c0 72.32-58.24 131.2-130.56 131.2z m-563.2-537.6c-36.48 0-66.56 30.08-66.56 66.56v339.84c0 36.48 30.08 66.56 66.56 66.56h563.2c36.48 0 66.56-30.08 66.56-66.56V277.76c0-36.48-30.08-66.56-66.56-66.56h-563.2zM696.96 865.28H357.12c-17.92 0-32-14.08-32-32s14.08-32 32-32h339.84c17.92 0 32 14.08 32 32s-14.72 32-32 32z" fill="#515151" p-id="13664"></path><path d="M906.88 624.64H154.24c-17.92 0-32-14.08-32-32s14.08-32 32-32h752.64c17.92 0 32 14.08 32 32s-14.08 32-32 32z" fill="#515151" p-id="13665"></path></svg>